<?xml version="1.0" encoding="UTF-8"?>
<svg width="256px" height="256px" viewBox="0 0 256 256" version="1.1" xmlns="http://www.w3.org/2000/svg" xmlns:xlink="http://www.w3.org/1999/xlink">
	<title>Spanner</title>
	<style>
		.icon { fill: #565196; }
		@media (prefers-color-scheme: dark) {
			.icon { fill: #ffffff; }
		}
	</style>
	<defs>
		<path d="M226,175.267646 C216.61389,169.499324 207.227725,163.730919 197.841686,157.962297 C194.455152,155.882563 191.067759,153.799684 187.688399,151.721436 C171.911449,142.023556 162.224611,130.919292 154.924529,114.126186 C147.104508,96.1346252 126.547257,95.1356556 109.670033,100.714711 C103.897533,102.590521 96.9730904,106.259661 105.734318,108.341774 C111.6968,109.754044 117.66014,111.169459 123.636969,112.584698 C132.637221,114.711835 131.592226,129.397657 128.746335,135.760239 C127.847066,137.760219 122.512104,147.080447 119.564519,146.274422 C117.954583,145.831356 116.345505,145.391436 114.737868,144.944393 C108.391655,143.204846 102.045442,141.465298 95.7006694,139.718629 C89.8373513,138.111687 90.3081901,141.895718 93.7932855,146.370457 C100.278268,154.844016 108.551744,161.872688 118.487473,165.95215 C126.954307,169.42332 135.464372,166.095745 144.290354,166.120904 C156.294145,166.14637 166.060271,170.58402 176.097181,176.646442 C188.778976,184.303322 201.461099,191.960115 214.143522,199.616716 L120.811531,253.151228 C116.497342,255.625814 109.509824,255.629924 105.188469,253.151228 L7.81153145,197.296566 C3.49734176,194.82198 6.60468642e-14,188.794158 6.32870111e-14,183.81622 L1.39608726e-15,72.1837795 C-1.35958871e-15,67.2133765 3.49017626,61.1821305 7.81153145,58.7034344 L105.188469,2.84877191 C109.502658,0.374185866 116.490176,0.370075788 120.811531,2.84877191 L218.188469,58.7034344 C222.502658,61.1780204 226,67.2058422 226,72.1837795 L226,175.267646 Z" id="path-1"></path>
	</defs>
	<g stroke="none" stroke-width="1" fill="none" fill-rule="evenodd">
		<g transform="translate(15.000000, 0.000000)">
			<mask id="mask-2" fill="white">
				<use xlink:href="#path-1"></use>
			</mask>
			<use class="icon" xlink:href="#path-1"></use>
		</g>
	</g>
</svg>
